<?xml version="1.0" encoding="utf-8"?>
<?xml-stylesheet type="text/xsl" href="rss1.xsl"?>
<rss version="2.0" xmlns:atom="http://www.w3.org/2005/Atom" xmlns:content="http://purl.org/rss/1.0/modules/content/" xmlns:dc="http://purl.org/dc/elements/1.1/" xmlns:media="http://search.yahoo.com/mrss/">
<channel>
 <title>Getty</title>
 <link>http://www.gettyimg.com/</link>
 <atom:link href="http://www.gettyimg.com/" rel="self" type="application/rss+xml" />

 
                <item>
                <title><![CDATA[【Requests】[REQ AUD] - Paul McCartney- Band On The Run (Underdubbed)]]></title>
                <link><![CDATA[https://sharemania.us/threads/paul-mccartney-band-on-the-run-underdubbed.236936/]]></link>
                <description><![CDATA[<article>
<blockquote class="messageText SelectQuoteContainer ugc baseHtml">
I was just checking if someone can please share this underdubbed version. It’s on Apple Music and all the hi-res sites. Thanks!
<div class="messageTextEndMarker">&nbsp;</div>
</blockquote>
</article>]]></description>
                <author><![CDATA[Duophonic]]></author>
                </item>

                
                <item>
                <title><![CDATA[【Music Videos】Michael Jackson - You Are Not Alone (1080p 5.1) (Clean)]]></title>
                <link><![CDATA[https://sharemania.us/threads/michael-jackson-you-are-not-alone-1080p-5-1-clean.236934/]]></link>
                <description><![CDATA[<article>
<blockquote class="messageText SelectQuoteContainer ugc baseHtml">
<img src="https://i.ibb.co/gdxyTNb/Michael-Jackson-You-Are-Not-Alone-5-1-mp4-thumbs-2024-02-02-14-49-43.jpg" class="bbCodeImage LbImage" alt="[​IMG]" data-url="https://i.ibb.co/gdxyTNb/Michael-Jackson-You-Are-Not-Alone-5-1-mp4-thumbs-2024-02-02-14-49-43.jpg" style=""> <br>
<br>
<div class="ToggleTriggerAnchor bbCodeSpoilerContainer">
<button type="button" class="button bbCodeSpoilerButton ToggleTrigger Tooltip JsOnly" data-target="> .SpoilerTarget"><span>Spoiler: <span class="SpoilerTitle">MediaInfo</span></span></button>
<div class="SpoilerTarget bbCodeSpoilerText">Michael Jackson - You Are Not Alone (5.1).mp4<br>
Format : MPEG-4<br>
Format profile : Base Media / Version 2<br>
Codec ID : mp42 (mp42/mp41)<br>
File size : 410 MiB<br>
Duration : 5 min 33 s<br>
Overall bit rate mode : Variable<br>
Overall bit rate : 10.3 Mb/s<br>
Frame rate : 25.000 FPS<br>
Encoded date : 2024-02-02 17:38:46 UTC<br>
Tagged date : 2024-02-02 17:39:34 UTC<br>
TIM : 00:00:00:00<br>
TSC : 25<br>
TSZ : 1<br>
<br>
Video<br>
ID : 1<br>
Format : AVC<br>
Format/Info : Advanced Video Codec<br>
Format profile : Main@L4.1<br>
Format settings : CABAC / 4 Ref Frames<br>
Format settings, CABAC : Yes<br>
Format settings, Reference : 4 frames<br>
Codec ID : avc1<br>
Codec ID/Info : Advanced Video Coding<br>
Duration : 5 min 33 s<br>
Bit rate : 9 999 kb/s<br>
Width : 1 440 pixels<br>
Height : 1 080 pixels<br>
Display aspect ratio : 4:3<br>
Frame rate mode : Constant<br>
Frame rate : 25.000 FPS<br>
Color space : YUV<br>
Chroma subsampling : 4:2:0<br>
Bit depth : 8 bits<br>
Scan type : Progressive<br>
Bits/(Pixel*Frame) : 0.257<br>
Stream size : 398 MiB (97%)<br>
Language : English<br>
Encoded date : 2024-02-02 17:38:46 UTC<br>
Tagged date : 2024-02-02 17:38:46 UTC<br>
Color range : Limited<br>
Color primaries : BT.709<br>
Transfer characteristics : BT.709<br>
Matrix coefficients : BT.709<br>
Codec configuration box : avcC<br>
<br>
Audio<br>
ID : 2<br>
Format : AAC LC<br>
Format/Info : Advanced Audio Codec Low Complexity<br>
Codec ID : mp4a-40-2<br>
Duration : 5 min 33 s<br>
Source duration : 5 min 33 s<br>
Bit rate mode : Variable<br>
Bit rate : 317 kb/s<br>
Maximum bit rate : 354 kb/s<br>
Channel(s) : 6 channels<br>
Channel layout : C L R Ls Rs LFE<br>
Sampling rate : 48.0 kHz<br>
Frame rate : 46.875 FPS (1024 SPF)<br>
Compression mode : Lossy<br>
Stream size : 12.6 MiB (3%)<br>
Source stream size : 12.6 MiB (3%)<br>
Language : English<br>
Encoded date : 2024-02-02 17:38:46 UTC<br>
Tagged date : 2024-02-02 17:38:46 UTC</div>
</div><br>
<div class="bbCodeBlock bbCodeVfcHH HiddenContent">
<div class="attribution type">Hidden Content:</div>
<blockquote>You must reply before you can see the hidden data contained here.</blockquote>
</div>
<div class="messageTextEndMarker">&nbsp;</div>
</blockquote>
</article>]]></description>
                <author><![CDATA[DJ-RoGeRs-BS]]></author>
                </item>

                
                <item>
                <title><![CDATA[【Requests】[REQ AUD] - Radio 1 Established 196]]></title>
                <link><![CDATA[https://sharemania.us/threads/radio-1-established-196.236935/]]></link>
                <description><![CDATA[<article>
<blockquote class="messageText SelectQuoteContainer ugc baseHtml">
thanks
<div class="messageTextEndMarker">&nbsp;</div>
</blockquote>
</article>]]></description>
                <author><![CDATA[Ufbjh]]></author>
                </item>

                </channel></rss>